<?xml version="1.0" encoding="UTF-8" standalone="no"?>
<svg
   viewBox="0 0 48 48"
   version="1.1"
   id="svg33"
   sodipodi:docname="favicon.svg"
   inkscape:version="1.1.1 (3bf5ae0d25, 2021-09-20)"
   xmlns:inkscape="http://www.inkscape.org/namespaces/inkscape"
   xmlns:sodipodi="http://sodipodi.sourceforge.net/DTD/sodipodi-0.dtd"
   xmlns="http://www.w3.org/2000/svg"
   xmlns:svg="http://www.w3.org/2000/svg">
  <sodipodi:namedview
     id="namedview35"
     pagecolor="#ffffff"
     bordercolor="#666666"
     borderopacity="1.0"
     inkscape:pageshadow="2"
     inkscape:pageopacity="0.0"
     inkscape:pagecheckerboard="0"
     showgrid="false"
     inkscape:zoom="9.6458333"
     inkscape:cx="29.701944"
     inkscape:cy="25.658747"
     inkscape:window-width="1366"
     inkscape:window-height="705"
     inkscape:window-x="-8"
     inkscape:window-y="-8"
     inkscape:window-maximized="1"
     inkscape:current-layer="svg33" />
  <defs
     id="defs23" />
  <g
     fill="none"
     fill-rule="nonzero"
     id="g31">
    <path
       fill="#161616"
       d="M0 0h48v48H0z"
       id="path25" />
    <path
       fill="#FFF"
       d="M20.8628939 35.438c3.1545623 0 5.6945996-.9191919 7.6201117-2.7575758C30.4290019 30.8218384 31.402 28.438 31.402 25.5289091v-1.4545455H20.6478101v3.1212122h7.1899441c-.3277468 1.4949495-1.0959032 2.6767676-2.3044693 3.5454545-1.2085661.8686869-2.755121 1.3030303-4.6396648 1.3030303-2.35567969 0-4.28119179-.7171717-5.7765363-2.1515151-1.45437616-1.4343435-2.18156425-3.2424243-2.18156425-5.4242425 0-2.16161613.72718809-3.97979795 2.18156425-5.45454542 1.45437616-1.45454546 3.30819367-2.18181819 5.5614525-2.18181819 1.3929237 0 2.6527002.30303031 3.7793296.90909091 1.1266294.60606061 1.9767226 1.42424243 2.5502794 2.45454546l3.0418994-1.72727273c-.9217877-1.55555556-2.2174116-2.78282828-3.8868715-3.68181818-1.66946-.8989899-3.4976723-1.34848485-5.4846369-1.34848485-3.19553071 0-5.87895716 1.07070707-8.05027932 3.21212121C10.47741899 18.77133333 9.402 21.36729293 9.402 24.438c0 3.0909091 1.07541899 5.6969697 3.22625698 7.8181818C14.79957914 34.3773939 17.5444581 35.438 20.8628939 35.438z"
       id="path27" />
    <path
       fill="#CF000F"
       d="M36.402 35.438c.5511111 0 1.0222222-.1955556 1.4133333-.5866667.3911111-.3911111.5866667-.8622222.5866667-1.4133333 0-.5511111-.1955556-1.0222222-.5866667-1.4133333C37.4242222 31.6335556 36.9531111 31.438 36.402 31.438c-.5688889 0-1.0444444.1955556-1.4266667.5866667-.3822222.3911111-.5733333.8622222-.5733333 1.4133333 0 .5511111.1955556 1.0222222.5866667 1.4133333.3911111.3911111.8622222.5866667 1.4133333.5866667z"
       id="path29" />
  </g>
  <rect
     style="fill:#161616;fill-opacity:1"
     id="rect4877"
     width="28.406048"
     height="33.071274"
     x="6.0129609"
     y="8.3974085" />
  <text
     xml:space="preserve"
     style="font-style:normal;font-weight:normal;font-size:30.7309px;line-height:1.25;font-family:sans-serif;fill:#000000;fill-opacity:1;stroke:none;stroke-width:0.768273"
     x="13.06848"
     y="35.265255"
     id="text1725"><tspan
       sodipodi:role="line"
       id="tspan1723"
       x="13.06848"
       y="35.265255"
       style="font-style:normal;font-variant:normal;font-weight:bold;font-stretch:normal;font-family:'Helvetica Neue';-inkscape-font-specification:'Helvetica Neue Bold';fill:#ffffff;stroke-width:0.768273">Z</tspan></text>
</svg>
